<svg width="79" height="145" viewBox="0 0 79 145" fill="none" xmlns="http://www.w3.org/2000/svg">
<path d="M61.3031 177.335V113.552C68.9501 110.638 74.3888 103.202 74.3888 94.4846V59.8106H3.64301V94.4846C3.64301 103.202 9.08173 110.638 16.7287 113.552V177.335H61.3031Z" fill="#FFCAB9"/>
<path d="M44.506 63.7123C40.3833 64.4774 36.4246 61.734 35.6639 57.5845L27.4378 12.6918C26.6776 8.54234 29.4033 4.558 33.5261 3.79241C37.6488 3.0273 41.6075 5.77065 42.3682 9.92012L50.5943 54.8129C51.355 58.9628 48.6288 62.9471 44.506 63.7123Z" fill="#FABBA7"/>
<path d="M53.3121 63.0605C49.2787 61.9085 46.9375 57.6837 48.0816 53.6246L60.464 9.70904C61.6086 5.64995 65.8062 3.29307 69.8391 4.44464C73.8721 5.5967 76.2138 9.82141 75.0697 13.8805L62.6873 57.7961C61.5431 61.8557 57.3456 64.2126 53.3121 63.0605Z" fill="#FABBA7"/>
<path d="M11.2342 67.7852C7.04151 67.7852 3.64301 64.3647 3.64301 60.1449V52.8593C3.64301 48.6394 7.04151 45.2189 11.2342 45.2189C15.4269 45.2189 18.8253 48.6394 18.8253 52.8593V60.1449C18.8253 64.3647 15.4269 67.7852 11.2342 67.7852Z" fill="#FABBA7"/>
<path d="M26.4166 67.7853C22.2239 67.7853 18.8254 64.3647 18.8254 60.1449V44.5535C18.8254 40.3337 22.2239 36.9131 26.4166 36.9131C30.6092 36.9131 34.0077 40.3337 34.0077 44.5535V60.1449C34.0077 64.3647 30.6092 67.7853 26.4166 67.7853Z" fill="#FABBA7"/>
<path d="M74.3895 94.4849V60.1448C74.3895 55.925 70.991 52.5045 66.7984 52.5045H41.5987C37.406 52.5045 34.0075 55.925 34.0075 60.1448C34.0075 64.3647 37.406 67.7852 41.5987 67.7852H59.2072V79.2217C52.1748 80.5326 45.2171 87.21 45.2171 96.5872" fill="#FFCAB9"/>
<path d="M70.8331 0.919964C64.9774 -0.752909 58.6052 2.87767 56.962 8.70879L50.2262 32.5985L45.9491 9.25599C44.8258 3.12587 38.9536 -0.942965 32.8663 0.189058C26.7757 1.31961 22.7349 7.22646 23.8577 13.3566L27.5125 33.304C21.9515 32.7593 16.4816 36.832 15.3982 42.3641C8.27063 39.3315 -0.161246 45.0263 0.00234368 52.8601V94.485C0.00234368 103.552 5.16826 111.872 13.088 115.932V177.336C13.088 179.359 14.7176 181 16.7287 181C18.7399 181 20.3694 179.359 20.3694 177.336V113.552C20.3694 112.028 19.4331 110.664 18.0176 110.125C11.5973 107.678 7.28377 101.393 7.28377 94.4846V70.7258C11.1012 72.2652 15.9516 71.2544 18.8253 68.4681C22.9238 72.4138 29.9096 72.4128 34.0071 68.4681C36.0075 70.3178 38.674 71.4498 41.5982 71.4498H55.5659V76.444C48.3393 79.1013 41.5759 86.4153 41.5759 96.5874C41.5759 98.611 43.2054 100.252 45.2166 100.252C47.2277 100.252 48.8573 98.611 48.8573 96.5874C48.8573 88.9818 54.531 83.82 59.8702 82.8248C61.5959 82.5033 62.8478 80.9882 62.8478 79.2215V67.785C62.8478 65.7614 61.2182 64.1207 59.2071 64.1207H41.5987C36.373 63.9253 36.3599 56.3695 41.5987 56.1687C49.9985 56.1687 58.3984 56.1697 66.7982 56.1687C68.9764 56.1687 70.7486 57.952 70.7486 60.1447V94.4846C70.7486 101.393 66.4347 107.678 60.0149 110.125C58.5994 110.664 57.663 112.028 57.663 113.552V132.956C57.663 134.98 59.2925 136.62 61.3037 136.62C63.3148 136.62 64.9444 134.98 64.9444 132.956V115.931C72.8642 111.871 78.0301 103.551 78.0301 94.4846V60.1447C78.0301 54.6478 74.1112 50.0577 68.9385 49.0488L78.5723 14.8809C80.2626 8.8837 76.7913 2.62068 70.8331 0.919964ZM11.2342 64.1207C9.05607 64.1207 7.28377 62.3374 7.28377 60.1447V59.8106V52.8591C7.48279 47.5904 14.9875 47.5948 15.1846 52.8591V60.1447C15.1851 62.3374 13.4123 64.1207 11.2342 64.1207ZM30.3668 60.1447C30.1702 65.4081 22.6655 65.4145 22.4665 60.1447V52.8591V44.5534C22.6626 39.2905 30.1678 39.2837 30.3668 44.5534V60.1447ZM37.6483 49.5642V44.5539C37.6483 42.304 36.9891 40.2076 35.859 38.4443L31.0188 12.0277C30.6236 9.87159 32.0445 7.79419 34.1867 7.39649C36.3289 6.99928 38.3929 8.42933 38.7881 10.5854L45.7976 48.8406H41.5987C40.2089 48.8401 38.8779 49.0971 37.6483 49.5642ZM71.5676 12.8802L61.4284 48.8401H53.215L63.9667 10.709C64.8415 8.43959 66.4677 7.52645 68.8458 7.97007C70.9409 8.56808 72.1622 10.7711 71.5676 12.8802Z" fill="black"/>
</svg>
