<svg width="97" height="145" viewBox="0 0 97 145" fill="none" xmlns="http://www.w3.org/2000/svg">
<path d="M87.7318 51.8503C83.8712 50.1366 79.3502 51.8718 77.6336 55.7254L67.3158 79.5742H64.8684V64.3243V60.1718V21.9688C64.8684 17.7514 61.4437 14.3319 57.2186 14.3319C52.9935 14.3319 49.5688 17.7509 49.5688 21.9688V11.2514C49.5688 7.03396 46.144 3.6145 41.9189 3.6145C37.6944 3.6145 34.2691 7.03347 34.2691 11.2514V21.9688C34.2691 17.7514 30.8444 14.3319 26.6193 14.3319C22.3942 14.3319 18.9695 17.7509 18.9695 21.9688V40.0379C18.9695 35.8205 15.5447 32.4011 11.3196 32.4011C7.09505 32.4011 3.6698 35.82 3.6698 40.0379V60.1718V60.5059V94.8304C3.6698 103.544 9.1506 110.976 16.8572 113.889V178.496H61.7758V113.888C67.5037 111.724 71.9997 107.061 73.932 101.232L73.9843 101.24L81.2947 85.0955L91.6125 61.9309C93.33 58.0773 91.592 53.5639 87.7318 51.8503Z" fill="#FFCAB9"/>
<path d="M30.002 21.9688C30.002 19.9168 30.8169 18.0581 32.1358 16.6858C31.5238 16.049 30.8023 15.5215 30.002 15.1265V21.9688Z" fill="#FABBA7"/>
<path d="M18.1565 110.463C11.6861 108.018 7.3392 101.735 7.3392 94.8303V85.1702C7.3392 80.4346 0.00146484 80.4346 0.00146484 85.1702V94.8303C0.00146484 103.893 5.20734 112.209 13.1888 116.267V179.941C13.1888 181.964 14.831 183.604 16.8577 183.604C18.8844 183.604 20.5266 181.964 20.5266 179.941V113.888C20.5266 112.366 19.5829 111.002 18.1565 110.463Z" fill="black"/>
<path d="M95.1883 54.774C94.1038 51.9567 91.9846 49.7298 89.2227 48.5036C83.5868 46.0027 76.7378 48.7228 74.2655 54.273L68.5376 67.5128V21.9688C68.6932 14.2333 60.4025 8.54834 53.238 11.3911C52.3667 -3.80361 31.215 -3.79042 30.6011 11.3911C23.435 8.5503 15.1468 14.2328 15.3019 21.9693V29.4607C8.14076 26.6204 -0.156259 32.3014 0.00223615 40.0384V66.8569C0.00223615 71.5925 7.33997 71.5925 7.33997 66.8569V40.0379C7.54445 34.7681 15.1023 34.7779 15.3019 40.0379V65.5105C15.3019 70.2461 22.6396 70.2461 22.6396 65.5105C22.6396 50.9966 22.6396 36.4827 22.6396 21.9688C22.8358 16.7127 30.399 16.697 30.6011 21.9688V57.5865C30.6011 62.3221 37.9388 62.3221 37.9388 57.5865V11.2514C37.9388 9.06014 39.7243 7.27716 41.9198 7.27716C44.1152 7.27716 45.9007 9.05965 45.9007 11.2514V57.5865C45.9007 62.3221 53.2385 62.3221 53.2385 57.5865V21.9688C53.2385 19.7776 55.0245 17.9946 57.2199 17.9946C59.4154 17.9946 61.2009 19.7771 61.2009 21.9688V76.0004C50.3714 76.9668 41.8978 86.0561 41.8978 96.9322C41.8978 101.668 49.2355 101.668 49.2355 96.9322C49.2355 86.6636 58.5485 82.8745 67.3171 83.2373C68.7808 83.2373 70.105 82.3685 70.6856 81.027L80.9878 57.2139C82.1814 55.0934 83.9332 54.421 86.2421 55.1974C88.3666 56.389 89.0402 58.1378 88.2624 60.4434C82.4759 73.4351 70.5257 100.025 70.5257 100.025C68.8341 104.823 65.0781 108.726 60.4789 110.464C59.0524 111.003 58.1088 112.366 58.1088 113.889V178.496C58.1088 180.519 59.7509 182.159 61.7776 182.159C63.8043 182.159 65.4465 180.519 65.4465 178.496V116.261C70.8999 113.463 75.2644 108.518 77.3918 102.611C83.2982 89.5678 89.141 76.4985 94.9667 63.4194C96.194 60.6616 96.2733 57.5914 95.1883 54.774Z" fill="black"/>
</svg>
