<svg width="80" height="145" viewBox="0 0 80 145" fill="none" xmlns="http://www.w3.org/2000/svg">
<path d="M62.0662 176.113V80.1631C69.8084 77.2541 75.3149 69.8309 75.3149 61.1278V26.5116H3.68842V61.1278C3.68842 69.8309 9.1949 77.2541 16.9371 80.1631V176.113H62.0662Z" fill="#FFCAB9"/>
<path d="M11.3736 34.473C7.1287 34.473 3.68787 31.0581 3.68787 26.8453V19.5719C3.68787 15.3591 7.1287 11.9442 11.3736 11.9442C15.6185 11.9442 19.0593 15.3591 19.0593 19.5719V26.8453C19.0593 31.0581 15.6185 34.473 11.3736 34.473Z" fill="#FABBA7"/>
<path d="M26.745 34.4731C22.5002 34.4731 19.0593 31.0583 19.0593 26.8455V11.28C19.0593 7.06722 22.5002 3.6524 26.745 3.6524C30.9899 3.6524 34.4308 7.06722 34.4308 11.28V26.8455C34.4308 31.0583 30.9899 34.4731 26.745 34.4731Z" fill="#FABBA7"/>
<path d="M42.1163 34.4731C37.8714 34.4731 34.4305 31.0583 34.4305 26.8455V11.28C34.4305 7.06722 37.8714 3.6524 42.1163 3.6524C46.3612 3.6524 49.802 7.06722 49.802 11.28V26.8455C49.802 31.0583 46.3607 34.4731 42.1163 34.4731Z" fill="#FABBA7"/>
<path d="M57.4877 34.4731C53.2428 34.4731 49.802 31.0583 49.802 26.8455V11.28C49.802 7.06722 53.2428 3.6524 57.4877 3.6524C61.7326 3.6524 65.1735 7.06722 65.1735 11.28V26.8455C65.1735 31.0583 61.7321 34.4731 57.4877 34.4731Z" fill="#FABBA7"/>
<path d="M75.3156 61.1281V26.8453C75.3156 22.6325 71.8747 19.2177 67.6298 19.2177H42.1163C37.8714 19.2177 34.4305 22.6325 34.4305 26.8453C34.4305 31.0581 37.8714 34.4729 42.1163 34.4729H59.9441V45.8904C52.8241 47.1991 45.7797 53.8653 45.7797 63.2269" fill="#FFCAB9"/>
<path d="M68.8589 15.6262V11.2798C68.8914 1.49296 56.9387 -3.63387 49.802 2.97087C45.652 -0.968266 38.5797 -0.967291 34.4311 2.97087C27.9899 -3.00076 17.2261 0.555497 15.5895 9.09371C8.37317 6.06619 -0.163254 11.752 0.002373 19.5722V61.1278C0.002373 70.1796 5.23264 78.4857 13.251 82.5389L14.5559 174.62C14.5559 176.64 16.2058 178.278 18.242 178.278C20.2782 178.278 21.928 176.64 21.928 174.62L20.6232 80.1631C20.6232 78.6422 19.6751 77.2804 18.242 76.7419C11.7417 74.2997 7.37449 68.0247 7.37449 61.1278V37.4086C11.2394 38.945 16.1498 37.9368 19.0593 35.1546C23.2093 39.0938 30.2821 39.0933 34.4306 35.1546C36.456 37.0013 39.1552 38.1314 42.1163 38.1314H56.2575V43.1173C48.9414 45.7702 42.0937 53.072 42.0937 63.2271C42.0937 65.2474 43.7436 66.8853 45.7798 66.8853C47.816 66.8853 49.4658 65.2474 49.4658 63.2271C49.4658 55.6342 55.2102 50.481 60.6154 49.4874C62.3626 49.166 63.6301 47.6539 63.6301 45.8902V34.4728C63.6301 32.4525 61.9803 30.8146 59.9441 30.8146H42.1163C39.9111 30.8146 38.1167 29.0338 38.1167 26.8452C38.1167 24.6566 39.9106 22.8758 42.1163 22.8758H67.6298C69.835 22.8758 71.6294 24.6561 71.6294 26.8452V61.1278C71.6294 68.0247 67.2616 74.2992 60.7619 76.7419C59.3287 77.2804 58.3807 78.6422 58.3807 80.1631L59.6856 174.62C59.6856 176.64 61.3354 178.278 63.3716 178.278C65.4078 178.278 67.0577 176.64 67.0577 174.62L65.7528 82.5389C73.7712 78.4857 79.0015 70.1796 79.0015 61.1278V26.8452C79.0015 21.0345 74.5531 16.2369 68.8589 15.6262ZM57.4872 7.31046C59.6924 7.31046 61.4868 9.09078 61.4868 11.2798V15.5594H53.4881V11.2798C53.4881 9.09127 55.2819 7.31046 57.4872 7.31046ZM11.3736 30.8146C9.16837 30.8146 7.374 29.0342 7.374 26.8452V26.5116V19.5717C7.5755 14.3117 15.1732 14.3161 15.3727 19.5717V26.8452C15.3732 29.0342 13.5794 30.8146 11.3736 30.8146ZM26.7455 30.8146C24.5402 30.8146 22.7454 29.0342 22.7454 26.8452V19.5717V11.2798C22.9469 6.02034 30.5451 6.02376 30.7446 11.2798V26.8452C30.7446 29.0342 28.9507 30.8146 26.7455 30.8146ZM38.1167 16.2823V11.2803C38.3182 6.02033 45.9159 6.02472 46.1155 11.2803V15.5599H42.1158C40.7092 15.5594 39.3616 15.816 38.1167 16.2823Z" fill="black"/>
</svg>
